<svg xmlns="http://www.w3.org/2000/svg" viewBox="0 0 146.63 88.72"><defs><style>.cls-1{fill:#f39400;}</style></defs><g id="Слой_2" data-name="Слой 2"><g id="Слой_1-2" data-name="Слой 1"><path class="cls-1" d="M55.2,0,49.54,4.73,46.34.67l-1,1.1c-2.65,0-4.83,0-7,0A10.35,10.35,0,0,1,37,2c-2-.31-3.66-1-5.6,1.08s-.84,3.74-1.09,5.58a2.64,2.64,0,0,0,.52,1.83c3,3.81.48,6.69-1.79,9.52-2.85,3.56-5.85,7-8.79,10.49-.3.35-.62.69-1.35,1.52-.88-1.54-1.52-2.89-2.36-4.11-3.27-4.74-6.54-9.48-10-14.11-1-1.41-4.72-.89-6.06.62-.91,1-.44,4.3.87,5C5.73,21.74,7.26,25.92,9,30c2.39,5.58,4.48,11.29,7.2,16.71,1,2,3.2,3.65,5.26,4.78,4,2.2,6.41,7.28,4.95,11.56s-2.85,8.85-4.5,13.2c-1.11,2.91-2.58,5.69-4,8.49-1.3,2.62-.62,3.8,2.39,3.86,1,0,1.94,0,2.9,0,3.54-.1,3.36-.25,3.45-3.64,0-1.86,1.1-3.78,2.05-5.51,2.49-4.54,5.1-9,7.79-13.46,2.07-3.42,3-3,5.77-.16,3.26,3.43,4.79,7.62,7.23,11.39,1.53,2.37,4,4.21,5.79,6.06-.46,1.12-1.19,2.1-1.1,3,0,.48,1.47,1.17,2.31,1.22,7.53.47,15.07.81,22.61,1.22,2,.11,3-.47,3.29-2.51.31-2.34,5.22-4.54,7.49-3.57,16.28,6.91,31.3,4.95,45.13-5.72A16.12,16.12,0,0,1,138.84,75c1.32-.54,2.75-.86,4-1.44,2.05-.91,4.43-2,3.55-4.6s-3.37-2.14-5.67-1.89a23.05,23.05,0,0,0-12,4.86c-8.59,6.64-18.82,7-29.16,5.61-2.21-.29-4.19-2.35-6.21-3.7-4.78-3.2-6.08-8.37-8.15-13.11-1.94-4.46-5.56-7.58-9.3-10.69s-7.35-6.45-10.77-9.9c-3.2-3.24-6.35-6.41-10.79-8.12-3.51-1.35-5-4-3.09-7.16,2.6-4.36,3.15-8.92,3.24-13.73,0-1.79.84-3.56,1.14-5.36S56,2.25,56.2.47Z"/></g></g></svg>