<svg xmlns="http://www.w3.org/2000/svg" xmlns:xlink="http://www.w3.org/1999/xlink" viewBox="0 0 608.24 779.33"><defs><style>.cls-1,.cls-2{fill:none;}.cls-2{stroke:#000;stroke-miterlimit:10;}.cls-3{clip-path:url(#clip-path);}.cls-4{fill:#605d55;}.cls-5{fill:#fff;}.cls-6{fill:#f99410;}</style><clipPath id="clip-path" transform="translate(-193.5 -112.89)"><path class="cls-1" d="M788.35,370.66l-69.91-42.21,1.8-109.14a13.81,13.81,0,0,0-14.06-13.75l-77.75-.08A13.81,13.81,0,0,0,614.34,219l0,46.56L518.88,208a24,24,0,0,0-24.59-.15L218,370.22c-8.43,5-16.53,12.23-16.65,21.81L199.14,784.2l-1,74.26c-.2,15.44,12.62,28.07,28.52,28.09l546.08.56c15.77,0,28.56-12.39,28.58-27.7l.48-465.16A27.58,27.58,0,0,0,788.35,370.66Z"/></clipPath></defs><g id="Слой_2" data-name="Слой 2"><path class="cls-2" d="M131.5,833.5" transform="translate(-193.5 -112.89)"/><path class="cls-2" d="M127.41,830.76" transform="translate(-193.5 -112.89)"/><g class="cls-3"><path class="cls-4" d="M788.26,370.65l-69.92-42.21,1.8-109.15c.13-7.55-6.2-13.74-14.06-13.75l-77.74-.08c-7.77,0-14.08,6-14.09,13.52l0,46.57-95.42-57.62a24,24,0,0,0-24.58-.14L217.93,370.21c-8.44,5-16.53,12.23-16.66,21.81l-2.22,392.17-1,74.25c-.2,15.45,12.62,28.08,28.52,28.09l546.07.57c15.77,0,28.57-12.39,28.58-27.71l.49-465.15A27.58,27.58,0,0,0,788.26,370.65Z" transform="translate(-193.5 -112.89)"/><path class="cls-5" d="M715.33,510.28a4.71,4.71,0,0,1,2.41,3.14c1.39,6.41,1.86,13.52-.52,20.62-.44,1.25-1.17,2.25-1.29,3.54-1,11.55-1.44,23.21-3.07,34.65-4.25,29.7-23.56,53.26-48.82,56.64-13.87,1.86-28.25-.48-42.33-1.83-18.49-1.78-36.42-7.21-55.51-4.62-9.19,1.25-30.3,8.06-35,23.85-4.92,16.75-2.15,11.72-3.84,18.89-7.84,33.28-9.34,67.51-11.33,101.67l-318.52-.32c0-31,4.38-13.82,4.41-44.68,2.87-.74,20.16-9.61,28.05-17.49,4.58-4.57,7.44-8.57,11.78-13.37,31.26-34.6,50.89-62.69,76.73-100.4,32.54-48.15,55.86-82.09,83.42-123.43,15.85-23.77,33.88-44,58.78-55,19-8.38,38.37-9.75,58.67-8.85,24.61,1.08,48.21,5,70.71,16.37,17.48,8.85,35.24,17,39.11,42.6,1.77,11.7,8.41,23.21,19.09,28a234.16,234.16,0,0,0,34.84,12C693.9,505.2,703.88,504.35,715.33,510.28Z" transform="translate(-193.5 -112.89)"/><path class="cls-6" d="M497.7,888.13,210,887.83a12.44,12.44,0,0,1-12.43-12.45l.16-150c21.52-7.88,37.91-21.3,50.75-39.06,52.11-72.09,114.58-134.39,197.31-177.2q.76-.39,1.56-.72c7.89-3.2,16.57,3.28,15.22,11.68-.05.28-.1.55-.17.83-4.41,19.13-9.83,38.06-15,57.43,14.95,7.91,28.62,16.1,43.19,22.57,14.17,6.29,21.86,16.22,28,29.26,5.86,12.53,12.8,26.11,23.42,34.94,19.65,16.32,26.24,33.36,21.09,57.75-6.45,30.57-18.91,42.89-53,43.42-13.46.21-32.32-3.61-45.25.07-24.54,7-40.33,28-25.22,52.53,8.51,13.82,22.82,24.08,33.56,36.64C482.05,865.88,489.58,877.22,497.7,888.13Z" transform="translate(-193.5 -112.89)"/><path class="cls-5" d="M505.83,892.22,210,891.91a16.54,16.54,0,0,1-16.51-16.54l.16-152.85,2.67-1c19.82-7.26,35.8-19.57,48.85-37.62,58.74-81.26,123.75-139.63,198.75-178.44a20.9,20.9,0,0,1,1.9-.87,15.39,15.39,0,0,1,15.35,2.23,14.62,14.62,0,0,1,5.43,13.88c-.06.37-.13.74-.22,1.1-3.23,14-7.07,28.16-10.78,41.86q-1.69,6.26-3.39,12.57c3.65,2,7.23,3.92,10.72,5.84,10,5.49,19.43,10.68,29.34,15.08,13.61,6,22.58,15.38,30,31.25,5.56,11.86,12.32,25.21,22.34,33.54,21.17,17.59,27.9,36.06,22.48,61.74-7.16,33.9-22.05,46.11-56.93,46.65-4.75.07-10-.32-15.51-.74-10.25-.77-20.85-1.57-28.7.66C453,774,443.11,781.78,439.45,791.2c-3.05,7.84-1.78,16.67,3.67,25.53,4.95,8,12,14.82,19.42,22,4.66,4.49,9.49,9.14,13.76,14.14,6.25,7.31,11.89,15.16,17.34,22.75,2.39,3.32,4.86,6.76,7.33,10.08Zm-304-164-.16,147.19a8.38,8.38,0,0,0,8.36,8.37l279.63.29L487,880.37c-5.36-7.45-10.89-15.15-16.92-22.21-4-4.7-8.69-9.2-13.22-13.56-7.48-7.21-15.21-14.66-20.7-23.58-6.85-11.13-8.35-22.46-4.33-32.78,4.65-12,16.28-21.38,31.9-25.83,9.24-2.63,20.58-1.77,31.55-.94,5.34.4,10.37.78,14.76.72,30.83-.48,42.75-10.24,49.07-40.18,4.77-22.6-.94-38.18-19.71-53.77-11.31-9.4-18.58-23.69-24.51-36.35-6.61-14.12-14.12-22-25.93-27.26-10.23-4.54-19.82-9.81-30-15.38-4.38-2.41-8.9-4.89-13.48-7.31l-2.87-1.52.83-3.14q2.1-7.9,4.24-15.74c3.69-13.62,7.51-27.71,10.71-41.56,0-.19.08-.38.11-.56a6.44,6.44,0,0,0-2.46-6.19,7.11,7.11,0,0,0-7.19-1.06c-.43.18-.84.37-1.22.56-73.84,38.21-137.91,95.77-195.88,176C238.35,707.3,222,720.24,201.82,728.19Z" transform="translate(-193.5 -112.89)"/><path class="cls-6" d="M209.17,724.87l-11.06,3.85.31,144.74a13.51,13.51,0,0,0,13.51,13.48l280.1-.13-14.29-17.68Z" transform="translate(-193.5 -112.89)"/></g><path class="cls-6" d="M706.69,132.07c-6.11-23-30.7-25-41.2-7.64-10.5-17.29-35-15.26-41.13,7.67-5.73,21.42,34.21,51.44,40.66,56.12v.51l.36-.25.52.37v-.74C672.36,183.43,712.37,153.5,706.69,132.07Z" transform="translate(-193.5 -112.89)"/></g></svg>