<svg id="Слой_1" data-name="Слой 1" xmlns="http://www.w3.org/2000/svg" viewBox="0 0 483.53 83.51"><defs><style>.cls-1{fill:#615d55;}.cls-2{fill:#f7941d;}</style></defs><path class="cls-1" d="M347.12,475.73a30,30,0,0,1,10.62-6.57A36.43,36.43,0,0,1,370.1,467a32.94,32.94,0,0,1,11,1.61,16.41,16.41,0,0,1,7.3,5,21.05,21.05,0,0,1,4.09,8.45,50.06,50.06,0,0,1,1.29,12.2v26H378.28v-5.49H378a12.79,12.79,0,0,1-6,5,21.08,21.08,0,0,1-8.64,1.76,26.17,26.17,0,0,1-6.42-.83A18.84,18.84,0,0,1,350.9,518a14.6,14.6,0,0,1-4.5-5,15.3,15.3,0,0,1-1.76-7.65,13,13,0,0,1,3.06-9,19.84,19.84,0,0,1,7.86-5.28,41.07,41.07,0,0,1,10.72-2.48,107.41,107.41,0,0,1,11.48-.62v-.84a6.32,6.32,0,0,0-2.69-5.63,11.61,11.61,0,0,0-6.63-1.81,16.39,16.39,0,0,0-7,1.56,22,22,0,0,0-5.74,3.75Zm31.16,22H376.1c-1.88,0-3.75.1-5.63.26a23.09,23.09,0,0,0-5.07,1,9.44,9.44,0,0,0-3.68,2.12,4.87,4.87,0,0,0-1.44,3.68,4.36,4.36,0,0,0,.68,2.48,5,5,0,0,0,1.7,1.66,7.25,7.25,0,0,0,2.38.87,13.23,13.23,0,0,0,2.59.26c3.45,0,6.09-.93,7.92-2.81a10.67,10.67,0,0,0,2.74-7.72Z" transform="translate(-267.47 -438.39)"/><path class="cls-1" d="M436.76,483.91a18.8,18.8,0,0,0-4.87-3.31,13.21,13.21,0,0,0-5.89-1.35,10.13,10.13,0,0,0-4.4.94,3.25,3.25,0,0,0-2,3.2,3.18,3.18,0,0,0,2.22,3.1,48.93,48.93,0,0,0,7.2,2.08,39.74,39.74,0,0,1,5.85,1.75,21.36,21.36,0,0,1,5.33,3,14.51,14.51,0,0,1,3.83,4.56,13.47,13.47,0,0,1,1.44,6.41A15.45,15.45,0,0,1,438.37,518a22.25,22.25,0,0,1-7.1,3,34.07,34.07,0,0,1-7.86.94,38.77,38.77,0,0,1-12.37-2,25.71,25.71,0,0,1-10.09-6l9.52-10A18.83,18.83,0,0,0,416.1,508a15.48,15.48,0,0,0,7,1.66,9.18,9.18,0,0,0,4.08-.94,3.52,3.52,0,0,0,2-3.46,3.75,3.75,0,0,0-2.48-3.52,44,44,0,0,0-7.76-2.38,40,40,0,0,1-5.39-1.66,16.86,16.86,0,0,1-4.81-2.82,13.82,13.82,0,0,1-3.47-4.35,13.34,13.34,0,0,1-1.35-6.21,15,15,0,0,1,2-7.92A16.76,16.76,0,0,1,411,471.1a22.4,22.4,0,0,1,6.89-3.05,29.67,29.67,0,0,1,7.51-.94,36.35,36.35,0,0,1,11.33,1.81,24.5,24.5,0,0,1,9.39,5.44Z" transform="translate(-267.47 -438.39)"/><path class="cls-1" d="M485.61,483.91a18.92,18.92,0,0,0-4.86-3.31,13.29,13.29,0,0,0-5.91-1.35,10.12,10.12,0,0,0-4.39.94,3.25,3.25,0,0,0-2,3.2,3.18,3.18,0,0,0,2.23,3.1,48.45,48.45,0,0,0,7.19,2.08,39.61,39.61,0,0,1,5.84,1.75,20.59,20.59,0,0,1,5.33,3,14.41,14.41,0,0,1,3.84,4.56,13.6,13.6,0,0,1,1.45,6.41,15.46,15.46,0,0,1-7.1,13.67,22,22,0,0,1-7.08,3,34.22,34.22,0,0,1-7.87.94,38.86,38.86,0,0,1-12.37-2,25.78,25.78,0,0,1-10.09-6l9.52-10A18.83,18.83,0,0,0,465,508a15.51,15.51,0,0,0,7,1.66,9.18,9.18,0,0,0,4.08-.94,3.52,3.52,0,0,0,2-3.46,3.77,3.77,0,0,0-2.48-3.52,43.87,43.87,0,0,0-7.77-2.38,40.31,40.31,0,0,1-5.38-1.66,17.13,17.13,0,0,1-4.81-2.82,13.82,13.82,0,0,1-3.47-4.35,13.33,13.33,0,0,1-1.34-6.21,15,15,0,0,1,2-7.92,16.73,16.73,0,0,1,5.06-5.33,22.4,22.4,0,0,1,6.89-3.05,29.73,29.73,0,0,1,7.51-.94,36.41,36.41,0,0,1,11.34,1.81,24.53,24.53,0,0,1,9.38,5.44Z" transform="translate(-267.47 -438.39)"/><path class="cls-1" d="M522.56,452.24a8.77,8.77,0,0,1-.78,3.67,9.37,9.37,0,0,1-2.07,2.95,9.52,9.52,0,0,1-3.1,2,10,10,0,0,1-3.75.72,9.51,9.51,0,0,1-6.94-2.74,8.91,8.91,0,0,1-2.81-6.57,9.19,9.19,0,0,1,.72-3.58,8.45,8.45,0,0,1,2.07-2.94,11.4,11.4,0,0,1,3.11-2,9.34,9.34,0,0,1,3.83-.78,10.25,10.25,0,0,1,3.75.72,9.38,9.38,0,0,1,5.17,4.92,8.66,8.66,0,0,1,.78,3.68m-18.19,16.45h17v51.55h-17Z" transform="translate(-267.47 -438.39)"/><path class="cls-1" d="M553.19,481.32V501a8.9,8.9,0,0,0,1.4,5.45q1.41,1.81,5,1.82a18.09,18.09,0,0,0,2.65-.21,8.84,8.84,0,0,0,2.32-.62l.21,12.42a28.33,28.33,0,0,1-4.45,1.09,31.35,31.35,0,0,1-5.38.46,25.18,25.18,0,0,1-8.7-1.3,13.37,13.37,0,0,1-5.63-3.75,14.64,14.64,0,0,1-3-5.81,28,28,0,0,1-.94-7.51V481.32h-8.29V468.69h8.18V455.13h16.66v13.56h12.12v12.63Z" transform="translate(-267.47 -438.39)"/><path class="cls-1" d="M607.23,520.24V513.1H607a14.86,14.86,0,0,1-2.43,3.31,15.37,15.37,0,0,1-3.52,2.69,21.85,21.85,0,0,1-4.46,1.88,17.74,17.74,0,0,1-5.12.72,18.76,18.76,0,0,1-8.75-1.87A17.17,17.17,0,0,1,577,515a19.11,19.11,0,0,1-3.21-6.73,30.83,30.83,0,0,1-.94-7.71V468.66h17.08v27.95a27.38,27.38,0,0,0,.31,4.14,10.28,10.28,0,0,0,1.2,3.52,6.62,6.62,0,0,0,2.32,2.44,7.41,7.41,0,0,0,3.83.87,7.8,7.8,0,0,0,6.79-3.31,13.19,13.19,0,0,0,2.32-7.76V468.69h17v51.55Z" transform="translate(-267.47 -438.39)"/><path class="cls-1" d="M694.26,494.26a32.09,32.09,0,0,1-1.65,10.33,26.71,26.71,0,0,1-4.81,8.74,23.58,23.58,0,0,1-7.71,6.06,24.15,24.15,0,0,1-20.13.15,16,16,0,0,1-7.09-6h-.21v6.73H637V442h17v32.19h.2a21.48,21.48,0,0,1,6.11-4.77,19.76,19.76,0,0,1,9.63-2.16,22.64,22.64,0,0,1,17.75,8.07,27,27,0,0,1,4.87,8.64,31.23,31.23,0,0,1,1.69,10.32m-16.34,0a15.8,15.8,0,0,0-.78-4.87,11.88,11.88,0,0,0-6.16-7.14,11.64,11.64,0,0,0-5.28-1.14,11.42,11.42,0,0,0-5.17,1.14,12.5,12.5,0,0,0-3.89,3,13.68,13.68,0,0,0-2.47,4.24,13.84,13.84,0,0,0,0,9.74,13.68,13.68,0,0,0,2.47,4.24,12.27,12.27,0,0,0,3.89,3,12.16,12.16,0,0,0,14.28-3,12.67,12.67,0,0,0,2.33-4.3,16.37,16.37,0,0,0,.78-4.91" transform="translate(-267.47 -438.39)"/><path class="cls-1" d="M704.31,475.73a29.89,29.89,0,0,1,10.61-6.57A36.49,36.49,0,0,1,727.29,467a32.94,32.94,0,0,1,11,1.61,16.39,16.39,0,0,1,7.3,5A21.32,21.32,0,0,1,749.7,482a50,50,0,0,1,1.29,12.2v26H735.46v-5.49h-.31a12.79,12.79,0,0,1-5.95,5,21,21,0,0,1-8.64,1.76,26.23,26.23,0,0,1-6.42-.83,18.69,18.69,0,0,1-6-2.69,14.53,14.53,0,0,1-4.51-5,15.29,15.29,0,0,1-1.75-7.65,13,13,0,0,1,3-9,19.91,19.91,0,0,1,7.86-5.28,41.57,41.57,0,0,1,10.72-2.48A107.46,107.46,0,0,1,735,488v-.84a6.33,6.33,0,0,0-2.7-5.63,11.55,11.55,0,0,0-6.62-1.81,16.32,16.32,0,0,0-7,1.56A22.09,22.09,0,0,0,712.9,485Zm31.15,22h-2.17c-1.87,0-3.75.1-5.63.26a23.09,23.09,0,0,0-5.07,1,9.33,9.33,0,0,0-3.67,2.12,4.83,4.83,0,0,0-1.46,3.68,4.44,4.44,0,0,0,.68,2.48,5.12,5.12,0,0,0,1.71,1.66,7.17,7.17,0,0,0,2.38.87,13.13,13.13,0,0,0,2.58.26c3.45,0,6.09-.93,7.92-2.81a10.63,10.63,0,0,0,2.74-7.72Z" transform="translate(-267.47 -438.39)"/><polygon class="cls-2" points="49.94 81.85 19.54 44.16 19.3 44.16 19.3 81.85 0 81.85 0 0 19.3 0 19.3 33.3 19.65 33.3 48.9 0 73.65 0 38.38 37.69 75.72 81.85 49.94 81.85"/></svg>